<svg width="1279" height="1259" viewBox="0 0 1279 1259" fill="none" xmlns="http://www.w3.org/2000/svg">
<g clip-path="url(#clip0_489_729)">
<path d="M263.53 638.176C248.516 647.823 243.174 666.271 251.597 679.381C260.021 692.492 279.021 695.3 294.034 685.654C309.048 676.007 314.39 657.559 305.967 644.449C297.543 631.338 278.543 628.53 263.53 638.176Z" fill="#D9D9D9"/>
<path d="M265.913 690.048C258.383 687.72 252.518 682.522 249.607 675.599C246.696 668.677 246.978 660.596 250.391 653.134C253.804 645.673 260.068 639.442 267.805 635.812C275.543 632.183 284.12 631.452 291.65 633.781L278.782 661.915L265.913 690.048Z" fill="#C9B16A"/>
<path d="M113.025 863.62C98.0111 873.267 92.6688 891.715 101.092 904.825C109.516 917.936 128.516 920.744 143.529 911.098C158.543 901.451 163.885 883.003 155.462 869.893C147.038 856.782 128.038 853.974 113.025 863.62Z" fill="#D9D9D9"/>
<path d="M108.821 912.469C102.362 908.377 98.217 901.807 97.299 894.204C96.38 886.601 98.763 878.589 103.923 871.929C109.083 865.269 116.598 860.508 124.814 858.693C133.029 856.878 141.274 858.157 147.733 862.25L128.277 887.359L108.821 912.469Z" fill="#EBBC98"/>
<path d="M134.135 421.63C119.121 431.277 113.779 449.725 122.202 462.835C130.626 475.946 149.626 478.754 164.639 469.108C179.653 459.461 184.995 441.013 176.572 427.903C168.148 414.792 149.148 411.984 134.135 421.63Z" fill="#D9D9D9"/>
<path d="M120.264 459.176C118.685 455.476 118.006 451.4 118.272 447.22C118.539 443.04 119.744 438.852 121.809 434.935C123.874 431.018 126.75 427.462 130.247 424.504C133.743 421.546 137.779 419.254 142.085 417.781C146.392 416.308 150.87 415.687 155.221 415.96C159.573 416.233 163.697 417.394 167.321 419.365C170.944 421.336 173.982 424.072 176.233 427.391C178.484 430.709 179.896 434.534 180.375 438.611L149.387 445.369L120.264 459.176Z" fill="#DCC063"/>
<path d="M133.788 65.5599C134.134 91.526 139.948 117.117 139.948 143" stroke="#D9D9D9" stroke-width="3" stroke-linecap="round"/>
<path d="M107.388 96.36C129.387 95.781 150.388 86.68 172.508 86.68" stroke="#D9D9D9" stroke-width="3" stroke-linecap="round"/>
<path d="M109.588 76.9999C117.176 78.186 125.064 84.469 131.588 88.44C136.592 91.486 141.468 94.576 146.597 97.338C152.585 100.562 157.771 105.674 164.148 107.8" stroke="#D9D9D9" stroke-width="3" stroke-linecap="round"/>
<path d="M165.468 54.9999C161.625 55.809 157.716 61.1857 154.957 63.7999C151.419 67.1517 149.225 71.1144 146.108 74.7511C141.154 80.53 134.308 88.219 131.686 95.48C128.973 102.992 124.669 110.184 121.272 117.48C119.674 120.913 117.785 124.34 116.383 127.844C115.88 129.104 114.973 128.71 114.428 129.8" stroke="#D9D9D9" stroke-width="3" stroke-linecap="round"/>
<path d="M896.901 59.2955C866.864 62.0099 837.846 72.6444 807.869 74.8482" stroke="#D9D9D9" stroke-width="3" stroke-linecap="round"/>
<path d="M858.406 23.5215C861.428 55.4685 874.215 85.237 876.58 117.408" stroke="#D9D9D9" stroke-width="3" stroke-linecap="round"/>
<path d="M881.063 25.0728C880.501 36.2107 874.067 48.2181 870.166 58.0438C867.173 65.5814 864.115 72.9364 861.465 80.63C858.371 89.615 853.005 97.593 851.225 107.048" stroke="#D9D9D9" stroke-width="3" stroke-linecap="round"/>
<path d="M912.518 104.472C911.17 98.951 904.525 93.725 901.202 89.934C896.942 85.074 892.118 82.22 887.573 77.996C880.35 71.2842 870.713 61.9807 862.023 58.7855C853.032 55.4796 844.243 49.8321 835.429 45.5134C831.282 43.4814 827.111 41.0255 822.903 39.2854C821.39 38.6599 821.749 37.3076 820.429 36.6077" stroke="#D9D9D9" stroke-width="3" stroke-linecap="round"/>
<path d="M1224.9 654.296C1194.86 657.01 1165.85 667.644 1135.87 669.848" stroke="#D9D9D9" stroke-width="3" stroke-linecap="round"/>
<path d="M1186.41 618.522C1189.43 650.469 1202.21 680.237 1204.58 712.409" stroke="#D9D9D9" stroke-width="3" stroke-linecap="round"/>
<path d="M1209.06 620.073C1208.5 631.211 1202.07 643.218 1198.17 653.044C1195.17 660.581 1192.12 667.936 1189.47 675.631C1186.37 684.615 1181 692.593 1179.22 702.048" stroke="#D9D9D9" stroke-width="3" stroke-linecap="round"/>
<path d="M1240.52 699.472C1239.17 693.951 1232.53 688.725 1229.2 684.934C1224.94 680.074 1220.12 677.22 1215.57 672.996C1208.35 666.284 1198.71 656.981 1190.02 653.786C1181.03 650.48 1172.24 644.832 1163.43 640.513C1159.28 638.481 1155.11 636.026 1150.9 634.285C1149.39 633.66 1149.75 632.308 1148.43 631.608" stroke="#D9D9D9" stroke-width="3" stroke-linecap="round"/>
<path d="M1205.9 466.295C1175.86 469.01 1146.85 479.644 1116.87 481.848" stroke="#D9D9D9" stroke-width="3" stroke-linecap="round"/>
<path d="M1167.41 430.521C1170.43 462.468 1183.21 492.237 1185.58 524.408" stroke="#D9D9D9" stroke-width="3" stroke-linecap="round"/>
<path d="M1190.06 432.073C1189.5 443.211 1183.07 455.218 1179.17 465.044C1176.17 472.581 1173.12 479.936 1170.47 487.63C1167.37 496.615 1162 504.593 1160.22 514.048" stroke="#D9D9D9" stroke-width="3" stroke-linecap="round"/>
<path d="M1221.52 511.472C1220.17 505.951 1213.53 500.725 1210.2 496.934C1205.94 492.074 1201.12 489.22 1196.57 484.996C1189.35 478.284 1179.71 468.981 1171.02 465.785C1162.03 462.48 1153.24 456.832 1144.43 452.513C1140.28 450.481 1136.11 448.025 1131.9 446.285C1130.39 445.66 1130.75 444.308 1129.43 443.608" stroke="#D9D9D9" stroke-width="3" stroke-linecap="round"/>
<path d="M818.901 880.296C788.864 883.01 759.846 893.644 729.869 895.848" stroke="#D9D9D9" stroke-width="3" stroke-linecap="round"/>
<path d="M780.406 844.522C783.428 876.469 796.214 906.237 798.579 938.409" stroke="#D9D9D9" stroke-width="3" stroke-linecap="round"/>
<path d="M803.063 846.073C802.501 857.211 796.067 869.218 792.166 879.044C789.173 886.581 786.115 893.936 783.465 901.631C780.371 910.615 775.005 918.593 773.225 928.048" stroke="#D9D9D9" stroke-width="3" stroke-linecap="round"/>
<path d="M834.518 925.472C833.17 919.951 826.525 914.725 823.202 910.934C818.942 906.074 814.118 903.22 809.573 898.996C802.35 892.284 792.712 882.981 784.023 879.786C775.032 876.48 766.243 870.832 757.429 866.513C753.282 864.481 749.111 862.026 744.902 860.285C743.39 859.66 743.749 858.308 742.428 857.608" stroke="#D9D9D9" stroke-width="3" stroke-linecap="round"/>
<path d="M985.4 186.395C969.81 187.804 954.75 193.323 939.195 194.467" stroke="#D9D9D9" stroke-width="3" stroke-linecap="round"/>
<path d="M965.42 167.828C966.99 184.409 973.63 199.859 974.86 216.557" stroke="#D9D9D9" stroke-width="3" stroke-linecap="round"/>
<path d="M977.18 168.633C976.89 174.414 973.55 180.646 971.53 185.745C969.97 189.657 968.39 193.475 967.01 197.468C965.41 202.131 962.62 206.272 961.7 211.179" stroke="#D9D9D9" stroke-width="3" stroke-linecap="round"/>
<path d="M993.51 209.842C992.81 206.977 989.36 204.264 987.64 202.297C985.42 199.774 982.92 198.293 980.56 196.101C976.81 192.617 971.81 187.789 967.3 186.13C962.63 184.414 958.07 181.483 953.5 179.242C951.346 178.187 949.181 176.913 946.997 176.009C946.212 175.685 946.399 174.983 945.713 174.62" stroke="#D9D9D9" stroke-width="3" stroke-linecap="round"/>
<path d="M570.426 571.402C518.141 576.127 467.629 594.639 415.448 598.475" stroke="#D9D9D9" stroke-width="3" stroke-linecap="round"/>
<path d="M503.418 509.13C508.679 564.741 530.936 616.56 535.053 672.561" stroke="#D9D9D9" stroke-width="3" stroke-linecap="round"/>
<path d="M542.858 511.83C541.88 531.218 530.68 552.12 523.889 569.224C518.679 582.344 513.357 595.147 508.744 608.541C503.357 624.18 494.016 638.068 490.918 654.526" stroke="#D9D9D9" stroke-width="3" stroke-linecap="round"/>
<path d="M597.612 650.042C595.266 640.432 583.699 631.334 577.915 624.735C570.499 616.275 562.101 611.308 554.189 603.955C541.617 592.271 524.841 576.077 509.714 570.515C494.064 564.76 478.764 554.929 463.422 547.412C456.204 543.875 448.942 539.6 441.617 536.571C438.984 535.482 439.609 533.128 437.31 531.909" stroke="#D9D9D9" stroke-width="3" stroke-linecap="round"/>
<path d="M165.42 341.52C203.185 305.052 230.924 258.958 269.165 223.248" stroke="#D9D9D9" stroke-width="3" stroke-linecap="round"/>
<path d="M256.667 348.008C217.696 307.989 167.864 281.581 129.54 240.54" stroke="#D9D9D9" stroke-width="3" stroke-linecap="round"/>
<path d="M224.251 370.637C212.855 354.921 208.472 331.616 203.037 314.034C198.867 300.547 194.985 287.236 190.18 273.911C184.569 258.351 183.136 241.675 175.229 226.912" stroke="#D9D9D9" stroke-width="3" stroke-linecap="round"/>
<path d="M94.9299 297.31C102.784 303.325 117.5 303.158 126.144 304.671C137.226 306.611 146.881 305.214 157.655 305.98C174.775 307.198 197.999 309.293 213.269 304.14C229.069 298.809 247.151 296.872 263.816 293.108C271.657 291.336 279.994 290.113 287.6 287.879C290.334 287.076 291.322 289.302 293.877 288.809" stroke="#D9D9D9" stroke-width="3" stroke-linecap="round"/>
<path d="M889.555 537.423C886.139 499.623 872.756 463.106 869.982 425.381" stroke="#D9D9D9" stroke-width="3" stroke-linecap="round"/>
<path d="M934.575 488.979C894.371 492.783 856.908 508.874 816.422 511.85" stroke="#D9D9D9" stroke-width="3" stroke-linecap="round"/>
<path d="M932.622 517.493C918.606 516.785 903.495 508.688 891.13 503.779C881.644 500.012 872.388 496.164 862.706 492.829C851.399 488.935 841.359 482.182 829.461 479.942" stroke="#D9D9D9" stroke-width="3" stroke-linecap="round"/>
<path d="M832.702 557.077C839.65 555.381 846.227 547.018 850.998 542.836C857.114 537.475 860.705 531.404 866.021 525.684C874.468 516.595 886.176 504.467 890.197 493.531C894.357 482.216 901.464 471.156 906.899 460.064C909.456 454.845 912.547 449.596 914.736 444.3C915.524 442.396 917.225 442.849 918.106 441.187" stroke="#D9D9D9" stroke-width="3" stroke-linecap="round"/>
<path d="M438.293 326.176C459.291 294.559 471.713 257.704 493.164 226.548" stroke="#D9D9D9" stroke-width="3" stroke-linecap="round"/>
<path d="M503.726 316.577C469.992 294.378 430.705 283.476 397.269 260.454" stroke="#D9D9D9" stroke-width="3" stroke-linecap="round"/>
<path d="M484.355 337.592C473.867 328.266 467.152 312.493 460.582 300.924C455.542 292.049 450.733 283.255 445.269 274.593C438.889 264.479 435.287 252.927 427.41 243.733" stroke="#D9D9D9" stroke-width="3" stroke-linecap="round"/>
<path d="M381.654 305.915C388.134 308.941 398.498 306.537 404.836 306.262C412.962 305.91 419.562 303.423 427.288 302.29C439.565 300.489 456.288 298.359 466.269 292.348C476.596 286.129 489.062 281.952 500.243 276.704C505.504 274.235 511.2 272.076 516.223 269.316C518.029 268.325 519.072 269.743 520.8 268.998" stroke="#D9D9D9" stroke-width="3" stroke-linecap="round"/>
<path d="M260.893 1065.04C256.168 1012.75 237.657 962.241 233.82 910.06" stroke="#D9D9D9" stroke-width="3" stroke-linecap="round"/>
<path d="M323.166 998.03C267.555 1003.29 215.736 1025.55 159.735 1029.67" stroke="#D9D9D9" stroke-width="3" stroke-linecap="round"/>
<path d="M320.465 1037.47C301.077 1036.49 280.176 1025.29 263.072 1018.5C249.951 1013.29 237.148 1007.97 223.755 1003.36C208.116 997.97 194.228 988.63 177.77 985.53" stroke="#D9D9D9" stroke-width="3" stroke-linecap="round"/>
<path d="M182.254 1092.22C191.864 1089.88 200.962 1078.31 207.561 1072.53C216.021 1065.11 220.988 1056.71 228.34 1048.8C240.024 1036.23 256.219 1019.45 261.781 1004.33C267.536 988.68 277.367 973.376 284.884 958.034C288.421 950.816 292.696 943.554 295.725 936.229C296.814 933.596 299.168 934.221 300.386 931.922" stroke="#D9D9D9" stroke-width="3" stroke-linecap="round"/>
<path d="M685.173 488.35C674.204 489.342 663.607 493.225 652.659 494.03" stroke="#D9D9D9" stroke-width="3" stroke-linecap="round"/>
<path d="M671.115 475.286C672.219 486.953 676.888 497.824 677.752 509.573" stroke="#D9D9D9" stroke-width="3" stroke-linecap="round"/>
<path d="M679.389 475.852C679.184 479.92 676.834 484.305 675.41 487.893C674.317 490.646 673.2 493.332 672.232 496.142C671.102 499.423 669.142 502.337 668.492 505.789" stroke="#D9D9D9" stroke-width="3" stroke-linecap="round"/>
<path d="M690.877 504.849C690.384 502.833 687.958 500.924 686.744 499.539C685.188 497.765 683.427 496.723 681.767 495.18C679.129 492.729 675.609 489.331 672.436 488.164C669.152 486.957 665.943 484.894 662.724 483.317C661.21 482.575 659.686 481.678 658.149 481.043C657.597 480.814 657.728 480.321 657.246 480.065" stroke="#D9D9D9" stroke-width="3" stroke-linecap="round"/>
<path d="M742.173 584.351C731.204 585.342 720.607 589.226 709.659 590.03" stroke="#D9D9D9" stroke-width="3" stroke-linecap="round"/>
<path d="M728.115 571.286C729.219 582.953 733.888 593.824 734.752 605.573" stroke="#D9D9D9" stroke-width="3" stroke-linecap="round"/>
<path d="M736.389 571.853C736.184 575.92 733.834 580.305 732.41 583.893C731.317 586.646 730.2 589.332 729.232 592.142C728.102 595.423 726.142 598.337 725.492 601.79" stroke="#D9D9D9" stroke-width="3" stroke-linecap="round"/>
<path d="M747.877 600.849C747.384 598.833 744.958 596.924 743.744 595.54C742.188 593.765 740.427 592.723 738.767 591.18C736.129 588.729 732.609 585.331 729.436 584.164C726.152 582.957 722.943 580.895 719.724 579.317C718.21 578.575 716.686 577.678 715.149 577.043C714.597 576.815 714.728 576.321 714.246 576.065" stroke="#D9D9D9" stroke-width="3" stroke-linecap="round"/>
<path d="M830.173 378.35C819.204 379.342 808.607 383.225 797.659 384.03" stroke="#D9D9D9" stroke-width="3" stroke-linecap="round"/>
<path d="M816.115 365.286C817.219 376.953 821.888 387.824 822.752 399.573" stroke="#D9D9D9" stroke-width="3" stroke-linecap="round"/>
<path d="M824.389 365.852C824.184 369.92 821.834 374.305 820.41 377.893C819.317 380.646 818.2 383.332 817.232 386.142C816.102 389.423 814.142 392.337 813.492 395.789" stroke="#D9D9D9" stroke-width="3" stroke-linecap="round"/>
<path d="M835.877 394.849C835.384 392.833 832.958 390.924 831.744 389.539C830.188 387.765 828.427 386.723 826.767 385.18C824.129 382.729 820.609 379.331 817.436 378.164C814.152 376.957 810.943 374.894 807.724 373.317C806.21 372.575 804.686 371.678 803.149 371.043C802.597 370.814 802.728 370.321 802.246 370.065" stroke="#D9D9D9" stroke-width="3" stroke-linecap="round"/>
<path d="M685.173 488.35C674.204 489.342 663.607 493.225 652.659 494.03" stroke="#D9D9D9" stroke-width="3" stroke-linecap="round"/>
<path d="M671.115 475.286C672.219 486.953 676.888 497.824 677.752 509.573" stroke="#D9D9D9" stroke-width="3" stroke-linecap="round"/>
<path d="M679.389 475.852C679.184 479.92 676.834 484.305 675.41 487.893C674.317 490.646 673.2 493.332 672.232 496.142C671.102 499.423 669.142 502.337 668.492 505.789" stroke="#D9D9D9" stroke-width="3" stroke-linecap="round"/>
<path d="M690.877 504.849C690.384 502.833 687.958 500.924 686.744 499.539C685.188 497.765 683.427 496.723 681.767 495.18C679.129 492.729 675.609 489.331 672.436 488.164C669.152 486.957 665.943 484.894 662.724 483.317C661.21 482.575 659.686 481.678 658.149 481.043C657.597 480.814 657.728 480.321 657.246 480.065" stroke="#D9D9D9" stroke-width="3" stroke-linecap="round"/>
<path d="M655.366 646.351C666.336 647.342 676.933 651.226 687.88 652.03" stroke="#D9D9D9" stroke-width="3" stroke-linecap="round"/>
<path d="M669.424 633.286C668.321 644.953 663.651 655.824 662.787 667.573" stroke="#D9D9D9" stroke-width="3" stroke-linecap="round"/>
<path d="M661.15 633.853C661.355 637.92 663.705 642.305 665.13 645.893C666.223 648.646 667.339 651.332 668.307 654.142C669.437 657.423 671.397 660.337 672.047 663.79" stroke="#D9D9D9" stroke-width="3" stroke-linecap="round"/>
<path d="M649.663 662.849C650.155 660.833 652.582 658.924 653.795 657.54C655.351 655.765 657.113 654.723 658.773 653.18C661.41 650.729 664.93 647.331 668.103 646.164C671.387 644.957 674.597 642.895 677.815 641.317C679.33 640.575 680.853 639.678 682.39 639.043C682.942 638.815 682.811 638.321 683.293 638.065" stroke="#D9D9D9" stroke-width="3" stroke-linecap="round"/>
<path d="M610.173 216.351C599.204 217.342 588.607 221.226 577.659 222.03" stroke="#D9D9D9" stroke-width="3" stroke-linecap="round"/>
<path d="M596.115 203.286C597.219 214.953 601.888 225.824 602.752 237.573" stroke="#D9D9D9" stroke-width="3" stroke-linecap="round"/>
<path d="M604.389 203.853C604.184 207.92 601.834 212.305 600.41 215.893C599.317 218.646 598.2 221.332 597.232 224.142C596.102 227.423 594.142 230.337 593.492 233.789" stroke="#D9D9D9" stroke-width="3" stroke-linecap="round"/>
<path d="M615.877 232.849C615.384 230.833 612.958 228.924 611.744 227.54C610.188 225.765 608.427 224.723 606.767 223.18C604.129 220.729 600.609 217.331 597.436 216.164C594.152 214.957 590.943 212.895 587.724 211.317C586.21 210.575 584.686 209.678 583.149 209.043C582.597 208.814 582.728 208.321 582.246 208.065" stroke="#D9D9D9" stroke-width="3" stroke-linecap="round"/>
<path d="M692.173 284.35C681.204 285.342 670.607 289.225 659.659 290.03" stroke="#D9D9D9" stroke-width="3" stroke-linecap="round"/>
<path d="M678.115 271.286C679.219 282.953 683.888 293.824 684.752 305.573" stroke="#D9D9D9" stroke-width="3" stroke-linecap="round"/>
<path d="M686.389 271.852C686.184 275.92 683.834 280.305 682.41 283.893C681.317 286.646 680.2 289.332 679.232 292.142C678.102 295.423 676.142 298.337 675.492 301.789" stroke="#D9D9D9" stroke-width="3" stroke-linecap="round"/>
<path d="M697.877 300.849C697.384 298.833 694.958 296.924 693.744 295.539C692.188 293.765 690.427 292.723 688.767 291.18C686.129 288.729 682.609 285.331 679.436 284.164C676.152 282.957 672.943 280.894 669.724 279.317C668.21 278.575 666.686 277.678 665.149 277.043C664.597 276.814 664.728 276.321 664.246 276.065" stroke="#D9D9D9" stroke-width="3" stroke-linecap="round"/>
<path d="M1154.17 876.351C1143.2 877.342 1132.61 881.226 1121.66 882.03" stroke="#D9D9D9" stroke-width="3" stroke-linecap="round"/>
<path d="M1140.11 863.286C1141.22 874.953 1145.89 885.824 1146.75 897.573" stroke="#D9D9D9" stroke-width="3" stroke-linecap="round"/>
<path d="M1148.39 863.853C1148.18 867.92 1145.83 872.305 1144.41 875.893C1143.32 878.646 1142.2 881.332 1141.23 884.142C1140.1 887.423 1138.14 890.337 1137.49 893.79" stroke="#D9D9D9" stroke-width="3" stroke-linecap="round"/>
<path d="M1159.88 892.849C1159.38 890.833 1156.96 888.924 1155.74 887.54C1154.19 885.765 1152.43 884.723 1150.77 883.18C1148.13 880.729 1144.61 877.331 1141.44 876.164C1138.15 874.957 1134.94 872.895 1131.72 871.317C1130.21 870.575 1128.69 869.678 1127.15 869.043C1126.6 868.815 1126.73 868.321 1126.25 868.065" stroke="#D9D9D9" stroke-width="3" stroke-linecap="round"/>
<path d="M1216.17 973.351C1205.2 974.342 1194.61 978.23 1183.66 979.03" stroke="#D9D9D9" stroke-width="3" stroke-linecap="round"/>
<path d="M1202.11 960.286C1203.22 971.953 1207.89 982.82 1208.75 994.57" stroke="#D9D9D9" stroke-width="3" stroke-linecap="round"/>
<path d="M1210.39 960.853C1210.18 964.92 1207.83 969.305 1206.41 972.893C1205.32 975.646 1204.2 978.33 1203.23 981.14C1202.1 984.42 1200.14 987.34 1199.49 990.79" stroke="#D9D9D9" stroke-width="3" stroke-linecap="round"/>
<path d="M1221.88 989.85C1221.38 987.83 1218.96 985.92 1217.74 984.54C1216.19 982.76 1214.43 981.72 1212.77 980.18C1210.13 977.73 1206.61 974.331 1203.44 973.164C1200.15 971.957 1196.94 969.895 1193.72 968.317C1192.21 967.575 1190.69 966.678 1189.15 966.043C1188.6 965.815 1188.73 965.321 1188.25 965.065" stroke="#D9D9D9" stroke-width="3" stroke-linecap="round"/>
<path d="M59.173 410.35C48.2038 411.342 37.6066 415.225 26.6592 416.03" stroke="#D9D9D9" stroke-width="3" stroke-linecap="round"/>
<path d="M45.1149 397.286C46.2188 408.953 50.8882 419.824 51.752 431.573" stroke="#D9D9D9" stroke-width="3" stroke-linecap="round"/>
<path d="M53.3891 397.852C53.1841 401.92 50.8346 406.305 49.4098 409.893C48.3168 412.646 47.2002 415.332 46.2324 418.142C45.1024 421.423 43.1426 424.337 42.4926 427.789" stroke="#D9D9D9" stroke-width="3" stroke-linecap="round"/>
<path d="M64.8769 426.849C64.3839 424.833 61.9579 422.924 60.7439 421.539C59.1879 419.765 57.4269 418.723 55.7669 417.18C53.1289 414.729 49.6093 411.331 46.4358 410.164C43.1524 408.957 39.9426 406.894 36.7239 405.317C35.2095 404.575 33.686 403.678 32.1492 403.043C31.5968 402.814 31.7281 402.321 31.2458 402.065" stroke="#D9D9D9" stroke-width="3" stroke-linecap="round"/>
<path d="M109.142 554.366C98.1731 555.357 87.5761 559.24 76.6281 560.045" stroke="#D9D9D9" stroke-width="3" stroke-linecap="round"/>
<path d="M95.084 541.301C96.188 552.968 100.857 563.839 101.721 575.588" stroke="#D9D9D9" stroke-width="3" stroke-linecap="round"/>
<path d="M103.359 541.868C103.153 545.935 100.804 550.32 99.379 553.908C98.286 556.661 97.169 559.347 96.202 562.157C95.071 565.438 93.112 568.352 92.462 571.804" stroke="#D9D9D9" stroke-width="3" stroke-linecap="round"/>
<path d="M114.846 570.864C114.353 568.848 111.927 566.939 110.713 565.555C109.157 563.78 107.396 562.738 105.736 561.195C103.098 558.744 99.578 555.346 96.405 554.179C93.122 552.972 89.912 550.91 86.693 549.332C85.179 548.59 83.655 547.693 82.118 547.058C81.566 546.829 81.697 546.336 81.215 546.08" stroke="#D9D9D9" stroke-width="3" stroke-linecap="round"/>
<path d="M233.173 139.35C222.204 140.342 211.607 144.225 200.659 145.03" stroke="#D9D9D9" stroke-width="3" stroke-linecap="round"/>
<path d="M219.115 126.286C220.219 137.953 224.888 148.824 225.752 160.573" stroke="#D9D9D9" stroke-width="3" stroke-linecap="round"/>
<path d="M227.389 126.853C227.184 130.92 224.834 135.305 223.41 138.893C222.317 141.646 221.2 144.332 220.232 147.142C219.102 150.423 217.142 153.337 216.492 156.789" stroke="#D9D9D9" stroke-width="3" stroke-linecap="round"/>
<path d="M238.877 155.849C238.384 153.833 235.958 151.924 234.744 150.54C233.188 148.765 231.427 147.723 229.767 146.18C227.129 143.729 223.609 140.331 220.436 139.164C217.152 137.957 213.943 135.895 210.724 134.317C209.21 133.575 207.686 132.678 206.149 132.043C205.597 131.814 205.728 131.321 205.246 131.065" stroke="#D9D9D9" stroke-width="3" stroke-linecap="round"/>
<path d="M259.173 17.3505C248.204 18.3418 237.607 22.2255 226.659 23.0303" stroke="#D9D9D9" stroke-width="3" stroke-linecap="round"/>
<path d="M245.115 4.28601C246.219 15.9529 250.888 26.8243 251.752 38.5731" stroke="#D9D9D9" stroke-width="3" stroke-linecap="round"/>
<path d="M253.389 4.85251C253.184 8.92001 250.834 13.3051 249.41 16.8934C248.317 19.6461 247.2 22.3321 246.232 25.142C245.102 28.423 243.142 31.3366 242.492 34.7895" stroke="#D9D9D9" stroke-width="3" stroke-linecap="round"/>
<path d="M264.877 33.8488C264.384 31.8327 261.958 29.9239 260.744 28.5395C259.188 26.7646 257.427 25.7226 255.767 24.18C253.129 21.7287 249.609 18.3311 246.436 17.1643C243.152 15.957 239.943 13.8945 236.724 12.3173C235.21 11.5753 233.686 10.6784 232.149 10.0429C231.597 9.8145 231.728 9.3206 231.246 9.065" stroke="#D9D9D9" stroke-width="3" stroke-linecap="round"/>
<path d="M774.173 684.974C763.204 683.983 752.607 680.099 741.659 679.294" stroke="#D9D9D9" stroke-width="3" stroke-linecap="round"/>
<path d="M760.115 698.038C761.219 686.371 765.888 675.5 766.752 663.751" stroke="#D9D9D9" stroke-width="3" stroke-linecap="round"/>
<path d="M768.389 697.472C768.184 693.404 765.834 689.019 764.41 685.431C763.317 682.678 762.2 679.992 761.232 677.182C760.102 673.901 758.142 670.988 757.492 667.535" stroke="#D9D9D9" stroke-width="3" stroke-linecap="round"/>
<path d="M779.877 668.476C779.384 670.492 776.958 672.4 775.744 673.785C774.188 675.56 772.427 676.602 770.767 678.144C768.129 680.596 764.609 683.993 761.436 685.16C758.152 686.367 754.943 688.43 751.724 690.007C750.21 690.749 748.686 691.646 747.149 692.281C746.597 692.51 746.728 693.004 746.246 693.259" stroke="#D9D9D9" stroke-width="3" stroke-linecap="round"/>
<path d="M37.3662 345.35C48.3355 346.342 58.933 350.225 69.88 351.03" stroke="#D9D9D9" stroke-width="3" stroke-linecap="round"/>
<path d="M51.4245 332.286C50.3206 343.953 45.6512 354.824 44.7874 366.573" stroke="#D9D9D9" stroke-width="3" stroke-linecap="round"/>
<path d="M43.1499 332.852C43.3551 336.92 45.7048 341.305 47.1296 344.893C48.2226 347.646 49.3392 350.332 50.307 353.142C51.4371 356.423 53.397 359.337 54.047 362.789" stroke="#D9D9D9" stroke-width="3" stroke-linecap="round"/>
<path d="M31.6627 361.849C32.155 359.833 34.5817 357.924 35.7952 356.539C37.351 354.765 39.1128 353.723 40.7727 352.18C43.4104 349.729 46.9299 346.331 50.1034 345.164C53.387 343.957 56.597 341.894 59.815 340.317C61.33 339.575 62.853 338.678 64.39 338.043C64.942 337.814 64.811 337.321 65.293 337.065" stroke="#D9D9D9" stroke-width="3" stroke-linecap="round"/>
<path d="M26.1731 295.35C15.2038 296.342 4.60658 300.225 -6.34082 301.03" stroke="#D9D9D9" stroke-width="3" stroke-linecap="round"/>
<path d="M12.1149 282.286C13.2188 293.953 17.8882 304.824 18.752 316.573" stroke="#D9D9D9" stroke-width="3" stroke-linecap="round"/>
<path d="M20.3895 282.852C20.1843 286.92 17.8346 291.305 16.4098 294.893C15.3168 297.646 14.2002 300.332 13.2324 303.142C12.1024 306.423 10.1426 309.337 9.49255 312.789" stroke="#D9D9D9" stroke-width="3" stroke-linecap="round"/>
<path d="M31.8766 311.849C31.3843 309.833 28.9576 307.924 27.7441 306.539C26.1883 304.765 24.4265 303.723 22.7666 302.18C20.1289 299.729 16.6094 296.331 13.4359 295.164C10.1525 293.957 6.94265 291.894 3.72395 290.317C2.20955 289.575 0.68605 288.678 -0.85075 288.043C-1.40315 287.814 -1.27185 287.321 -1.75415 287.065" stroke="#D9D9D9" stroke-width="3" stroke-linecap="round"/>
<path d="M791.173 30.3505C780.204 31.3418 769.607 35.2255 758.659 36.0303" stroke="#D9D9D9" stroke-width="3" stroke-linecap="round"/>
<path d="M777.115 17.286C778.219 28.9529 782.888 39.8243 783.752 51.5731" stroke="#D9D9D9" stroke-width="3" stroke-linecap="round"/>
<path d="M785.389 17.8525C785.184 21.92 782.834 26.3051 781.41 29.8934C780.317 32.6461 779.2 35.3321 778.232 38.142C777.102 41.423 775.142 44.3366 774.492 47.7895" stroke="#D9D9D9" stroke-width="3" stroke-linecap="round"/>
<path d="M796.877 46.8488C796.384 44.8327 793.958 42.9239 792.744 41.5395C791.188 39.7646 789.427 38.7226 787.767 37.18C785.129 34.7287 781.609 31.3311 778.436 30.1643C775.152 28.957 771.943 26.8945 768.724 25.3173C767.21 24.5753 765.686 23.6784 764.149 23.0429C763.597 22.8145 763.728 22.3206 763.246 22.065" stroke="#D9D9D9" stroke-width="3" stroke-linecap="round"/>
<path d="M1138.74 168.785C1139.73 157.816 1143.61 147.219 1144.42 136.271" stroke="#D9D9D9" stroke-width="3" stroke-linecap="round"/>
<path d="M1125.67 154.727C1137.34 155.831 1148.21 160.5 1159.96 161.364" stroke="#D9D9D9" stroke-width="3" stroke-linecap="round"/>
<path d="M1126.24 163.002C1130.31 162.796 1134.69 160.447 1138.28 159.022C1141.03 157.929 1143.72 156.812 1146.53 155.844C1149.81 154.714 1152.72 152.755 1156.18 152.105" stroke="#D9D9D9" stroke-width="3" stroke-linecap="round"/>
<path d="M1155.24 174.489C1153.22 173.996 1151.31 171.57 1149.93 170.356C1148.15 168.8 1147.11 167.039 1145.57 165.379C1143.12 162.741 1139.72 159.221 1138.55 156.048C1137.34 152.765 1135.28 149.555 1133.71 146.336C1132.96 144.822 1132.07 143.298 1131.43 141.761C1131.2 141.209 1130.71 141.34 1130.45 140.858" stroke="#D9D9D9" stroke-width="3" stroke-linecap="round"/>
<path d="M982.74 526.785C983.73 515.816 987.61 505.219 988.42 494.271" stroke="#D9D9D9" stroke-width="3" stroke-linecap="round"/>
<path d="M969.67 512.727C981.34 513.831 992.21 518.5 1003.96 519.364" stroke="#D9D9D9" stroke-width="3" stroke-linecap="round"/>
<path d="M970.24 521.002C974.31 520.796 978.69 518.447 982.28 517.022C985.03 515.929 987.72 514.812 990.53 513.845C993.81 512.714 996.72 510.755 1000.18 510.105" stroke="#D9D9D9" stroke-width="3" stroke-linecap="round"/>
<path d="M999.24 532.489C997.22 531.997 995.31 529.57 993.93 528.356C992.15 526.8 991.11 525.039 989.57 523.379C987.12 520.741 983.72 517.222 982.55 514.048C981.34 510.765 979.28 507.555 977.71 504.336C976.96 502.822 976.07 501.298 975.43 499.762C975.2 499.209 974.71 499.34 974.45 498.858" stroke="#D9D9D9" stroke-width="3" stroke-linecap="round"/>
<path d="M933.738 34.7852C934.73 23.8159 938.613 13.2187 939.418 2.2713" stroke="#D9D9D9" stroke-width="3" stroke-linecap="round"/>
<path d="M920.674 20.727C932.341 21.8309 943.212 26.5004 954.96 27.3641" stroke="#D9D9D9" stroke-width="3" stroke-linecap="round"/>
<path d="M921.24 29.0016C925.308 28.7963 929.693 26.4466 933.281 25.0219C936.034 23.9289 938.72 22.8122 941.53 21.8445C944.811 20.7144 947.725 18.7546 951.177 18.1046" stroke="#D9D9D9" stroke-width="3" stroke-linecap="round"/>
<path d="M950.237 40.4887C948.221 39.9965 946.312 37.5697 944.927 36.3562C943.152 34.8004 942.11 33.0386 940.568 31.3788C938.117 28.741 934.719 25.2215 933.552 22.048C932.345 18.7646 930.282 15.5548 928.705 12.3362C927.963 10.8217 927.066 9.2982 926.431 7.7615C926.202 7.209 925.709 7.3403 925.453 6.858" stroke="#D9D9D9" stroke-width="3" stroke-linecap="round"/>
<path d="M1217.74 26.7852C1218.73 15.8159 1222.61 5.2187 1223.42 -5.7287" stroke="#D9D9D9" stroke-width="3" stroke-linecap="round"/>
<path d="M1204.67 12.727C1216.34 13.8309 1227.21 18.5004 1238.96 19.3641" stroke="#D9D9D9" stroke-width="3" stroke-linecap="round"/>
<path d="M1205.24 21.0016C1209.31 20.7963 1213.69 18.4466 1217.28 17.0219C1220.03 15.9289 1222.72 14.8122 1225.53 13.8445C1228.81 12.7144 1231.72 10.7546 1235.18 10.1046" stroke="#D9D9D9" stroke-width="3" stroke-linecap="round"/>
<path d="M1234.24 32.4887C1232.22 31.9965 1230.31 29.5697 1228.93 28.3562C1227.15 26.8004 1226.11 25.0386 1224.57 23.3788C1222.12 20.741 1218.72 17.2215 1217.55 14.048C1216.34 10.7646 1214.28 7.5548 1212.71 4.3362C1211.96 2.8217 1211.07 1.2982 1210.43 -0.238499C1210.2 -0.790999 1209.71 -0.659698 1209.45 -1.142" stroke="#D9D9D9" stroke-width="3" stroke-linecap="round"/>
<path d="M910.738 248.785C911.73 237.816 915.613 227.219 916.418 216.271" stroke="#D9D9D9" stroke-width="3" stroke-linecap="round"/>
<path d="M897.674 234.727C909.341 235.831 920.212 240.5 931.961 241.364" stroke="#D9D9D9" stroke-width="3" stroke-linecap="round"/>
<path d="M898.24 243.002C902.308 242.796 906.693 240.447 910.281 239.022C913.034 237.929 915.72 236.812 918.53 235.844C921.811 234.714 924.725 232.755 928.177 232.105" stroke="#D9D9D9" stroke-width="3" stroke-linecap="round"/>
<path d="M927.237 254.489C925.221 253.996 923.312 251.57 921.927 250.356C920.152 248.8 919.111 247.039 917.568 245.379C915.117 242.741 911.719 239.221 910.552 236.048C909.345 232.765 907.282 229.555 905.705 226.336C904.963 224.822 904.066 223.298 903.431 221.761C903.202 221.209 902.709 221.34 902.453 220.858" stroke="#D9D9D9" stroke-width="3" stroke-linecap="round"/>
<path d="M1094.74 246.785C1095.73 235.816 1099.61 225.219 1100.42 214.271" stroke="#D9D9D9" stroke-width="3" stroke-linecap="round"/>
<path d="M1081.67 232.727C1093.34 233.831 1104.21 238.5 1115.96 239.364" stroke="#D9D9D9" stroke-width="3" stroke-linecap="round"/>
<path d="M1082.24 241.002C1086.31 240.796 1090.69 238.447 1094.28 237.022C1097.03 235.929 1099.72 234.812 1102.53 233.844C1105.81 232.714 1108.72 230.755 1112.18 230.105" stroke="#D9D9D9" stroke-width="3" stroke-linecap="round"/>
<path d="M1111.24 252.489C1109.22 251.996 1107.31 249.57 1105.93 248.356C1104.15 246.8 1103.11 245.039 1101.57 243.379C1099.12 240.741 1095.72 237.221 1094.55 234.048C1093.34 230.765 1091.28 227.555 1089.71 224.336C1088.96 222.822 1088.07 221.298 1087.43 219.761C1087.2 219.209 1086.71 219.34 1086.45 218.858" stroke="#D9D9D9" stroke-width="3" stroke-linecap="round"/>
<path d="M1205.74 239.785C1206.73 228.816 1210.61 218.219 1211.42 207.271" stroke="#D9D9D9" stroke-width="3" stroke-linecap="round"/>
<path d="M1192.67 225.727C1204.34 226.831 1215.21 231.5 1226.96 232.364" stroke="#D9D9D9" stroke-width="3" stroke-linecap="round"/>
<path d="M1193.24 234.002C1197.31 233.796 1201.69 231.447 1205.28 230.022C1208.03 228.929 1210.72 227.812 1213.53 226.844C1216.81 225.714 1219.72 223.755 1223.18 223.105" stroke="#D9D9D9" stroke-width="3" stroke-linecap="round"/>
<path d="M1222.24 245.489C1220.22 244.996 1218.31 242.57 1216.93 241.356C1215.15 239.8 1214.11 238.039 1212.57 236.379C1210.12 233.741 1206.72 230.221 1205.55 227.048C1204.34 223.765 1202.28 220.555 1200.71 217.336C1199.96 215.822 1199.07 214.298 1198.43 212.761C1198.2 212.209 1197.71 212.34 1197.45 211.858" stroke="#D9D9D9" stroke-width="3" stroke-linecap="round"/>
<path d="M1016.74 778.785C1017.73 767.816 1021.61 757.219 1022.42 746.271" stroke="#D9D9D9" stroke-width="3" stroke-linecap="round"/>
<path d="M1003.67 764.727C1015.34 765.831 1026.21 770.5 1037.96 771.364" stroke="#D9D9D9" stroke-width="3" stroke-linecap="round"/>
<path d="M1004.24 773.002C1008.31 772.796 1012.69 770.447 1016.28 769.022C1019.03 767.929 1021.72 766.812 1024.53 765.845C1027.81 764.714 1030.72 762.755 1034.18 762.105" stroke="#D9D9D9" stroke-width="3" stroke-linecap="round"/>
<path d="M1033.24 784.489C1031.22 783.997 1029.31 781.57 1027.93 780.356C1026.15 778.8 1025.11 777.039 1023.57 775.379C1021.12 772.741 1017.72 769.222 1016.55 766.048C1015.34 762.765 1013.28 759.555 1011.71 756.336C1010.96 754.822 1010.07 753.298 1009.43 751.762C1009.2 751.209 1008.71 751.34 1008.45 750.858" stroke="#D9D9D9" stroke-width="3" stroke-linecap="round"/>
<path d="M972.74 856.785C973.73 845.816 977.61 835.219 978.42 824.271" stroke="#D9D9D9" stroke-width="3" stroke-linecap="round"/>
<path d="M959.67 842.727C971.34 843.831 982.21 848.5 993.96 849.364" stroke="#D9D9D9" stroke-width="3" stroke-linecap="round"/>
<path d="M960.24 851.002C964.31 850.796 968.69 848.447 972.28 847.022C975.03 845.929 977.72 844.812 980.53 843.845C983.81 842.714 986.72 840.755 990.18 840.105" stroke="#D9D9D9" stroke-width="3" stroke-linecap="round"/>
<path d="M989.24 862.489C987.22 861.997 985.31 859.57 983.93 858.356C982.15 856.8 981.11 855.039 979.57 853.379C977.12 850.741 973.72 847.222 972.55 844.048C971.34 840.765 969.28 837.555 967.71 834.336C966.96 832.822 966.07 831.298 965.43 829.762C965.2 829.209 964.71 829.34 964.45 828.858" stroke="#D9D9D9" stroke-width="3" stroke-linecap="round"/>
<path d="M1083.74 849.785C1084.73 838.816 1088.61 828.219 1089.42 817.271" stroke="#D9D9D9" stroke-width="3" stroke-linecap="round"/>
<path d="M1070.67 835.727C1082.34 836.831 1093.21 841.5 1104.96 842.364" stroke="#D9D9D9" stroke-width="3" stroke-linecap="round"/>
<path d="M1071.24 844.002C1075.31 843.796 1079.69 841.447 1083.28 840.022C1086.03 838.929 1088.72 837.812 1091.53 836.845C1094.81 835.714 1097.72 833.755 1101.18 833.105" stroke="#D9D9D9" stroke-width="3" stroke-linecap="round"/>
<path d="M1100.24 855.489C1098.22 854.997 1096.31 852.57 1094.93 851.356C1093.15 849.8 1092.11 848.039 1090.57 846.379C1088.12 843.741 1084.72 840.222 1083.55 837.048C1082.34 833.765 1080.28 830.555 1078.71 827.336C1077.96 825.822 1077.07 824.298 1076.43 822.762C1076.2 822.209 1075.71 822.34 1075.45 821.858" stroke="#D9D9D9" stroke-width="3" stroke-linecap="round"/>
<path d="M959.74 443.785C960.73 432.816 964.61 422.219 965.42 411.271" stroke="#D9D9D9" stroke-width="3" stroke-linecap="round"/>
<path d="M946.674 429.727C958.34 430.831 969.21 435.5 980.96 436.364" stroke="#D9D9D9" stroke-width="3" stroke-linecap="round"/>
<path d="M947.24 438.002C951.308 437.796 955.69 435.447 959.28 434.022C962.03 432.929 964.72 431.812 967.53 430.844C970.81 429.714 973.72 427.755 977.18 427.105" stroke="#D9D9D9" stroke-width="3" stroke-linecap="round"/>
<path d="M976.24 449.489C974.22 448.996 972.31 446.57 970.93 445.356C969.15 443.8 968.11 442.039 966.57 440.379C964.12 437.741 960.72 434.221 959.55 431.048C958.34 427.765 956.28 424.555 954.71 421.336C953.96 419.822 953.07 418.298 952.431 416.761C952.202 416.209 951.709 416.34 951.453 415.858" stroke="#D9D9D9" stroke-width="3" stroke-linecap="round"/>
<path d="M1251.74 619.785C1252.73 608.816 1256.61 598.219 1257.42 587.271" stroke="#D9D9D9" stroke-width="3" stroke-linecap="round"/>
<path d="M1238.67 605.727C1250.34 606.831 1261.21 611.5 1272.96 612.364" stroke="#D9D9D9" stroke-width="3" stroke-linecap="round"/>
<path d="M1239.24 614.002C1243.31 613.796 1247.69 611.447 1251.28 610.022C1254.03 608.929 1256.72 607.812 1259.53 606.845C1262.81 605.714 1265.72 603.755 1269.18 603.105" stroke="#D9D9D9" stroke-width="3" stroke-linecap="round"/>
<path d="M1268.24 625.489C1266.22 624.997 1264.31 622.57 1262.93 621.356C1261.15 619.8 1260.11 618.039 1258.57 616.379C1256.12 613.741 1252.72 610.222 1251.55 607.048C1250.34 603.765 1248.28 600.555 1246.71 597.336C1245.96 595.822 1245.07 594.298 1244.43 592.762C1244.2 592.209 1243.71 592.34 1243.45 591.858" stroke="#D9D9D9" stroke-width="3" stroke-linecap="round"/>
<path d="M1237.74 767.785C1238.73 756.816 1242.61 746.219 1243.42 735.271" stroke="#D9D9D9" stroke-width="3" stroke-linecap="round"/>
<path d="M1224.67 753.727C1236.34 754.831 1247.21 759.5 1258.96 760.364" stroke="#D9D9D9" stroke-width="3" stroke-linecap="round"/>
<path d="M1225.24 762.002C1229.31 761.796 1233.69 759.447 1237.28 758.022C1240.03 756.929 1242.72 755.812 1245.53 754.845C1248.81 753.714 1251.72 751.755 1255.18 751.105" stroke="#D9D9D9" stroke-width="3" stroke-linecap="round"/>
<path d="M1254.24 773.489C1252.22 772.997 1250.31 770.57 1248.93 769.356C1247.15 767.8 1246.11 766.039 1244.57 764.379C1242.12 761.741 1238.72 758.222 1237.55 755.048C1236.34 751.765 1234.28 748.555 1232.71 745.336C1231.96 743.822 1231.07 742.298 1230.43 740.762C1230.2 740.209 1229.71 740.34 1229.45 739.858" stroke="#D9D9D9" stroke-width="3" stroke-linecap="round"/>
<path d="M292.789 745.559C277.074 746.979 261.893 752.543 246.209 753.696" stroke="#D9D9D9" stroke-width="3" stroke-linecap="round"/>
<path d="M272.649 726.842C274.231 743.557 280.92 759.131 282.158 775.963" stroke="#D9D9D9" stroke-width="3" stroke-linecap="round"/>
<path d="M284.504 727.654C284.21 733.481 280.843 739.763 278.802 744.904C277.236 748.848 275.637 752.696 274.25 756.721C272.631 761.422 269.824 765.596 268.892 770.542" stroke="#D9D9D9" stroke-width="3" stroke-linecap="round"/>
<path d="M300.96 769.195C300.255 766.306 296.778 763.572 295.04 761.588C292.811 759.046 290.287 757.553 287.909 755.343C284.13 751.831 279.088 746.964 274.542 745.292C269.838 743.562 265.239 740.608 260.628 738.348C258.459 737.285 256.276 736 254.075 735.09C253.283 734.763 253.471 734.055 252.78 733.689" stroke="#D9D9D9" stroke-width="3" stroke-linecap="round"/>
<path d="M364.502 666.367C374.381 654.063 380.906 639.269 390.955 627.173" stroke="#D9D9D9" stroke-width="3" stroke-linecap="round"/>
<path d="M391.954 664.845C378.819 654.389 362.96 648.403 349.979 637.618" stroke="#D9D9D9" stroke-width="3" stroke-linecap="round"/>
<path d="M383.146 672.82C379.153 668.566 376.963 661.783 374.677 656.747C372.923 652.884 371.261 649.062 369.324 645.271C367.061 640.844 366.003 635.926 363.086 631.824" stroke="#D9D9D9" stroke-width="3" stroke-linecap="round"/>
<path d="M341.81 655.855C344.38 657.351 348.761 656.744 351.396 656.868C354.773 657.026 357.599 656.244 360.841 656.065C365.991 655.779 372.995 655.524 377.353 653.409C381.862 651.221 387.18 649.959 392.006 648.205C394.277 647.38 396.717 646.7 398.9 645.745C399.684 645.403 400.063 646.029 400.806 645.785" stroke="#D9D9D9" stroke-width="3" stroke-linecap="round"/>
<path d="M360.789 967.261C345.074 968.681 329.893 974.245 314.209 975.398" stroke="#D9D9D9" stroke-width="3" stroke-linecap="round"/>
<path d="M340.649 948.545C342.231 965.259 348.92 980.83 350.158 997.67" stroke="#D9D9D9" stroke-width="3" stroke-linecap="round"/>
<path d="M352.504 949.357C352.21 955.184 348.843 961.466 346.802 966.607C345.236 970.55 343.637 974.398 342.25 978.42C340.631 983.12 337.824 987.3 336.892 992.24" stroke="#D9D9D9" stroke-width="3" stroke-linecap="round"/>
<path d="M368.96 990.9C368.255 988.01 364.778 985.27 363.04 983.29C360.811 980.75 358.287 979.26 355.909 977.05C352.13 973.534 347.088 968.666 342.542 966.995C337.838 965.265 333.239 962.31 328.628 960.051C326.459 958.988 324.276 957.703 322.075 956.792C321.283 956.465 321.471 955.758 320.78 955.391" stroke="#D9D9D9" stroke-width="3" stroke-linecap="round"/>
<path d="M432.502 888.069C442.381 875.766 448.906 860.971 458.955 848.876" stroke="#D9D9D9" stroke-width="3" stroke-linecap="round"/>
<path d="M459.954 886.548C446.819 876.092 430.96 870.105 417.979 859.32" stroke="#D9D9D9" stroke-width="3" stroke-linecap="round"/>
<path d="M451.146 894.523C447.153 890.268 444.963 883.486 442.677 878.45C440.923 874.586 439.261 870.764 437.324 866.973C435.061 862.546 434.003 857.629 431.086 853.526" stroke="#D9D9D9" stroke-width="3" stroke-linecap="round"/>
<path d="M409.81 877.558C412.38 879.054 416.761 878.447 419.396 878.57C422.773 878.729 425.599 877.947 428.841 877.767C433.991 877.482 440.995 877.227 445.353 875.112C449.862 872.924 455.18 871.662 460.006 869.908C462.277 869.083 464.717 868.402 466.9 867.448C467.684 867.105 468.063 867.731 468.806 867.488" stroke="#D9D9D9" stroke-width="3" stroke-linecap="round"/>
<path d="M240.489 597.329C237.596 586.69 231.917 576.924 229.212 566.274" stroke="#D9D9D9" stroke-width="3" stroke-linecap="round"/>
<path d="M250.911 581.191C239.604 584.317 229.704 590.818 218.275 593.721" stroke="#D9D9D9" stroke-width="3" stroke-linecap="round"/>
<path d="M251.797 589.446C247.752 589.954 243.02 588.404 239.234 587.626C236.33 587.03 233.488 586.398 230.549 585.935C227.118 585.394 223.904 583.971 220.387 583.934" stroke="#D9D9D9" stroke-width="3" stroke-linecap="round"/>
<path d="M225.223 605.832C227.125 604.995 228.582 602.27 229.735 600.832C231.213 598.988 231.932 597.07 233.162 595.164C235.118 592.136 237.852 588.074 238.448 584.742C239.064 581.295 240.537 577.771 241.529 574.323C241.996 572.701 242.614 571.042 242.972 569.417C243.101 568.832 243.61 568.875 243.778 568.355" stroke="#D9D9D9" stroke-width="3" stroke-linecap="round"/>
<path d="M88.4879 759.329C85.5949 748.691 79.9159 738.924 77.2109 728.274" stroke="#D9D9D9" stroke-width="3" stroke-linecap="round"/>
<path d="M98.91 743.191C87.603 746.317 77.703 752.818 66.274 755.721" stroke="#D9D9D9" stroke-width="3" stroke-linecap="round"/>
<path d="M99.797 751.446C95.752 751.954 91.019 750.404 87.233 749.626C84.329 749.03 81.487 748.398 78.548 747.935C75.117 747.394 71.903 745.971 68.386 745.934" stroke="#D9D9D9" stroke-width="3" stroke-linecap="round"/>
<path d="M73.223 767.833C75.124 766.995 76.581 764.27 77.734 762.832C79.212 760.989 79.931 759.07 81.162 757.165C83.117 754.137 85.851 750.074 86.447 746.742C87.064 743.295 88.536 739.771 89.528 736.323C89.995 734.701 90.613 733.043 90.971 731.417C91.1 730.832 91.609 730.876 91.777 730.356" stroke="#D9D9D9" stroke-width="3" stroke-linecap="round"/>
<path d="M327.739 429.785C328.73 418.816 332.614 408.219 333.418 397.271" stroke="#D9D9D9" stroke-width="3" stroke-linecap="round"/>
<path d="M314.674 415.727C326.341 416.831 337.212 421.5 348.961 422.364" stroke="#D9D9D9" stroke-width="3" stroke-linecap="round"/>
<path d="M315.24 424.002C319.308 423.796 323.693 421.447 327.281 420.022C330.034 418.929 332.72 417.812 335.53 416.845C338.811 415.714 341.725 413.755 345.177 413.105" stroke="#D9D9D9" stroke-width="3" stroke-linecap="round"/>
<path d="M344.237 435.489C342.221 434.997 340.312 432.57 338.928 431.356C337.153 429.8 336.111 428.039 334.568 426.379C332.117 423.741 328.719 420.222 327.552 417.048C326.345 413.765 324.283 410.555 322.705 407.336C321.963 405.822 321.066 404.298 320.431 402.762C320.202 402.209 319.709 402.34 319.453 401.858" stroke="#D9D9D9" stroke-width="3" stroke-linecap="round"/>
<path d="M341.739 247.785C342.73 236.816 346.614 226.219 347.418 215.271" stroke="#D9D9D9" stroke-width="3" stroke-linecap="round"/>
<path d="M328.674 233.727C340.341 234.831 351.212 239.5 362.961 240.364" stroke="#D9D9D9" stroke-width="3" stroke-linecap="round"/>
<path d="M329.24 242.002C333.308 241.796 337.693 239.447 341.281 238.022C344.034 236.929 346.72 235.812 349.53 234.844C352.811 233.714 355.725 231.755 359.177 231.105" stroke="#D9D9D9" stroke-width="3" stroke-linecap="round"/>
<path d="M358.237 253.489C356.221 252.996 354.312 250.57 352.928 249.356C351.153 247.8 350.111 246.039 348.568 244.379C346.117 241.741 342.719 238.222 341.552 235.048C340.345 231.765 338.283 228.555 336.705 225.336C335.963 223.822 335.066 222.298 334.431 220.761C334.202 220.209 333.709 220.34 333.453 219.858" stroke="#D9D9D9" stroke-width="3" stroke-linecap="round"/>
<path d="M459.739 487.785C460.73 476.816 464.614 466.219 465.418 455.271" stroke="#D9D9D9" stroke-width="3" stroke-linecap="round"/>
<path d="M446.674 473.727C458.341 474.831 469.212 479.5 480.961 480.364" stroke="#D9D9D9" stroke-width="3" stroke-linecap="round"/>
<path d="M447.24 482.002C451.308 481.796 455.693 479.447 459.281 478.022C462.034 476.929 464.72 475.812 467.53 474.845C470.811 473.714 473.725 471.755 477.177 471.105" stroke="#D9D9D9" stroke-width="3" stroke-linecap="round"/>
<path d="M476.237 493.489C474.221 492.997 472.312 490.57 470.928 489.356C469.153 487.8 468.111 486.039 466.568 484.379C464.117 481.741 460.719 478.222 459.552 475.048C458.345 471.765 456.283 468.555 454.705 465.336C453.963 463.822 453.066 462.298 452.431 460.762C452.202 460.209 451.709 460.34 451.453 459.858" stroke="#D9D9D9" stroke-width="3" stroke-linecap="round"/>
<path d="M64.489 883.329C61.596 872.69 55.917 862.923 53.212 852.274" stroke="#D9D9D9" stroke-width="3" stroke-linecap="round"/>
<path d="M74.911 867.191C63.604 870.317 53.704 876.818 42.2744 879.721" stroke="#D9D9D9" stroke-width="3" stroke-linecap="round"/>
<path d="M75.797 875.446C71.752 875.954 67.02 874.404 63.234 873.626C60.33 873.03 57.487 872.398 54.549 871.935C51.1175 871.394 47.9034 869.971 44.3866 869.934" stroke="#D9D9D9" stroke-width="3" stroke-linecap="round"/>
<path d="M49.2233 891.832C51.1246 890.995 52.5821 888.27 53.735 886.832C55.212 884.988 55.932 883.07 57.162 881.164C59.118 878.136 61.852 874.074 62.448 870.742C63.064 867.295 64.537 863.771 65.529 860.323C65.996 858.701 66.614 857.042 66.972 855.417C67.101 854.832 67.61 854.875 67.778 854.355" stroke="#D9D9D9" stroke-width="3" stroke-linecap="round"/>
<path d="M673.489 1077.33C670.596 1066.69 664.917 1056.92 662.212 1046.27" stroke="#D9D9D9" stroke-width="3" stroke-linecap="round"/>
<path d="M683.911 1061.19C672.604 1064.32 662.704 1070.82 651.275 1073.72" stroke="#D9D9D9" stroke-width="3" stroke-linecap="round"/>
<path d="M684.797 1069.45C680.752 1069.95 676.02 1068.4 672.234 1067.63C669.33 1067.03 666.488 1066.4 663.549 1065.93C660.118 1065.39 656.904 1063.97 653.387 1063.93" stroke="#D9D9D9" stroke-width="3" stroke-linecap="round"/>
<path d="M658.223 1085.83C660.125 1085 661.582 1082.27 662.735 1080.83C664.213 1078.99 664.932 1077.07 666.162 1075.16C668.118 1072.14 670.852 1068.07 671.448 1064.74C672.064 1061.29 673.537 1057.77 674.529 1054.32C674.996 1052.7 675.614 1051.04 675.972 1049.42C676.101 1048.83 676.61 1048.88 676.778 1048.36" stroke="#D9D9D9" stroke-width="3" stroke-linecap="round"/>
<path d="M711.489 851.329C708.596 840.69 702.917 830.923 700.212 820.274" stroke="#D9D9D9" stroke-width="3" stroke-linecap="round"/>
<path d="M721.911 835.191C710.604 838.317 700.704 844.818 689.275 847.721" stroke="#D9D9D9" stroke-width="3" stroke-linecap="round"/>
<path d="M722.797 843.446C718.752 843.954 714.02 842.404 710.234 841.626C707.33 841.03 704.488 840.398 701.549 839.935C698.118 839.394 694.904 837.971 691.387 837.934" stroke="#D9D9D9" stroke-width="3" stroke-linecap="round"/>
<path d="M696.223 859.832C698.125 858.995 699.582 856.27 700.735 854.832C702.213 852.988 702.932 851.07 704.162 849.164C706.118 846.136 708.852 842.074 709.448 838.742C710.064 835.295 711.537 831.771 712.529 828.323C712.996 826.701 713.614 825.042 713.972 823.417C714.101 822.832 714.61 822.875 714.778 822.355" stroke="#D9D9D9" stroke-width="3" stroke-linecap="round"/>
<path d="M407.758 771.296C437.795 774.01 466.813 784.644 496.79 786.848" stroke="#D9D9D9" stroke-width="3" stroke-linecap="round"/>
<path d="M446.253 735.522C443.23 767.469 430.444 797.237 428.079 829.409" stroke="#D9D9D9" stroke-width="3" stroke-linecap="round"/>
<path d="M423.595 737.073C424.157 748.211 430.591 760.218 434.493 770.044C437.486 777.581 440.543 784.936 443.193 792.631C446.288 801.615 451.654 809.593 453.434 819.048" stroke="#D9D9D9" stroke-width="3" stroke-linecap="round"/>
<path d="M392.141 816.472C393.489 810.951 400.134 805.725 403.456 801.934C407.717 797.074 412.541 794.22 417.086 789.996C424.309 783.284 433.946 773.981 442.636 770.786C451.627 767.48 460.416 761.832 469.23 757.513C473.376 755.481 477.548 753.026 481.756 751.285C483.269 750.66 482.909 749.308 484.23 748.608" stroke="#D9D9D9" stroke-width="3" stroke-linecap="round"/>
<path d="M27.7582 637.296C57.795 640.01 86.813 650.644 116.79 652.848" stroke="#D9D9D9" stroke-width="3" stroke-linecap="round"/>
<path d="M66.253 601.522C63.23 633.469 50.4443 663.237 48.0792 695.409" stroke="#D9D9D9" stroke-width="3" stroke-linecap="round"/>
<path d="M43.5953 603.073C44.1572 614.211 50.5914 626.218 54.493 636.044C57.486 643.581 60.543 650.936 63.193 658.631C66.288 667.615 71.654 675.593 73.434 685.048" stroke="#D9D9D9" stroke-width="3" stroke-linecap="round"/>
<path d="M12.1406 682.472C13.4886 676.951 20.1336 671.725 23.4565 667.934C27.7168 663.074 32.5408 660.22 37.086 655.996C44.3087 649.284 53.946 639.981 62.636 636.786C71.627 633.48 80.416 627.832 89.23 623.513C93.376 621.481 97.548 619.026 101.756 617.285C103.269 616.66 102.909 615.308 104.23 614.608" stroke="#D9D9D9" stroke-width="3" stroke-linecap="round"/>
<path d="M228.882 869.91C222.076 868.939 217.337 862.696 218.297 855.964C219.257 849.233 225.553 844.563 232.359 845.534C239.165 846.504 243.904 852.748 242.944 859.479C241.984 866.21 235.688 870.88 228.882 869.91Z" fill="#D9D9D9"/>
<path d="M211.711 901.177C204.905 900.206 200.166 893.962 201.126 887.231C202.086 880.5 208.382 875.83 215.188 876.801C221.994 877.771 226.733 884.015 225.773 890.746C224.813 897.477 218.517 902.147 211.711 901.177Z" fill="#D9D9D9"/>
<path d="M227.197 861.379C223.9 869.583 219.276 877.491 214.787 885.095C213.885 886.624 212.691 890.753 210.8 891.098" stroke="#D9D9D9" stroke-linecap="round"/>
<path d="M636.651 129.75C640.741 125.66 647.336 125.624 651.381 129.669C655.426 133.714 655.39 140.309 651.3 144.399C647.21 148.489 640.615 148.526 636.57 144.48C632.524 140.435 632.561 133.84 636.651 129.75Z" fill="#D9D9D9"/>
<path d="M624.281 102.406C628.371 98.3161 634.966 98.2797 639.011 102.325C643.056 106.37 643.02 112.965 638.93 117.055C634.84 121.145 628.245 121.182 624.199 117.137C620.154 113.091 620.191 106.496 624.281 102.406Z" fill="#D9D9D9"/>
<path d="M643.243 132.924C639.388 126.563 636.401 119.458 633.549 112.597C632.976 111.217 630.801 108.328 631.524 106.882" stroke="#D9D9D9" stroke-linecap="round"/>
<path d="M331.651 761.75C335.741 757.66 342.336 757.624 346.381 761.669C350.426 765.714 350.39 772.309 346.3 776.399C342.21 780.489 335.615 780.526 331.57 776.48C327.524 772.435 327.561 765.84 331.651 761.75Z" fill="#D9D9D9"/>
<path d="M319.281 734.406C323.371 730.316 329.966 730.28 334.011 734.325C338.056 738.37 338.02 744.965 333.93 749.055C329.84 753.145 323.245 753.182 319.199 749.137C315.154 745.091 315.191 738.496 319.281 734.406Z" fill="#D9D9D9"/>
<path d="M338.243 764.924C334.388 758.563 331.401 751.458 328.549 744.597C327.976 743.217 325.801 740.328 326.524 738.882" stroke="#D9D9D9" stroke-linecap="round"/>
<path d="M1047.84 695.55C1052.84 698.449 1054.58 704.813 1051.71 709.763C1048.84 714.713 1042.46 716.375 1037.45 713.475C1032.45 710.576 1030.71 704.212 1033.58 699.262C1036.45 694.312 1042.83 692.65 1047.84 695.55Z" fill="#D9D9D9"/>
<path d="M1071.08 676.559C1076.08 679.458 1077.82 685.822 1074.95 690.772C1072.08 695.722 1065.7 697.384 1060.69 694.484C1055.69 691.585 1053.95 685.221 1056.82 680.271C1059.69 675.321 1066.07 673.659 1071.08 676.559Z" fill="#D9D9D9"/>
<path d="M1046.47 702.736C1051.62 697.373 1057.72 692.659 1063.61 688.138C1064.8 687.229 1067.03 684.383 1068.61 684.71" stroke="#D9D9D9" stroke-linecap="round"/>
<path d="M61.6974 161.216C59.0713 152.205 64.1668 142.795 73.0786 140.198C81.9904 137.601 91.3438 142.8 93.9699 151.811C96.5961 160.821 91.5005 170.232 82.5887 172.829C73.6769 175.426 64.3236 170.227 61.6974 161.216Z" fill="#D9D9D9"/>
<path d="M13.143 157.471C10.5168 148.46 15.6124 139.05 24.5242 136.453C33.436 133.856 42.7893 139.055 45.4155 148.065C48.0416 157.076 42.9461 166.487 34.0343 169.084C25.1225 171.681 15.7691 166.482 13.143 157.471Z" fill="#D9D9D9"/>
<path d="M71.358 154.316C59.299 154.835 46.8596 153.539 34.8743 152.24C32.4644 151.979 26.6568 152.819 25.1636 150.661" stroke="#D9D9D9" stroke-linecap="round"/>
<path d="M524.305 720.537C526.468 711.404 535.544 705.734 544.577 707.874C553.609 710.013 559.178 719.151 557.015 728.284C554.852 737.417 545.776 743.087 536.743 740.947C527.71 738.808 522.141 729.67 524.305 720.537Z" fill="#D9D9D9"/>
<path d="M448.265 675.537C450.428 666.404 459.504 660.734 468.537 662.874C477.569 665.013 483.138 674.151 480.975 683.284C478.812 692.417 469.736 698.087 460.703 695.947C451.67 693.808 446.101 684.67 448.265 675.537Z" fill="#D9D9D9"/>
<path d="M535.388 724C514.887 713.704 495.436 700.158 476.74 687.027C472.981 684.387 462.562 680.37 462.08 675.547" stroke="#D9D9D9" stroke-linecap="round"/>
<path d="M581.293 309.409C587.293 302.191 597.943 301.151 605.082 307.084C612.22 313.018 613.143 323.68 607.143 330.897C601.144 338.115 590.493 339.156 583.355 333.222C576.216 327.288 575.293 316.627 581.293 309.409Z" fill="#D9D9D9"/>
<path d="M557.234 267.069C563.234 259.851 573.884 258.811 581.022 264.744C588.161 270.678 589.084 281.34 583.084 288.557C577.085 295.775 566.434 296.816 559.296 290.882C552.157 284.948 551.234 274.287 557.234 267.069Z" fill="#D9D9D9"/>
<path d="M592.417 313.556C585.24 303.851 579.356 292.816 573.727 282.155C572.596 280.011 568.65 275.667 569.604 273.223" stroke="#D9D9D9" stroke-linecap="round"/>
<path d="M964.323 625.863C957.378 619.549 956.81 608.863 963.055 601.994C969.299 595.126 979.991 594.676 986.936 600.99C993.88 607.304 994.448 617.99 988.204 624.858C981.959 631.727 971.268 632.176 964.323 625.863Z" fill="#D9D9D9"/>
<path d="M920.963 648.021C914.018 641.707 913.45 631.021 919.695 624.152C925.939 617.284 936.631 616.834 943.576 623.148C950.52 629.462 951.088 640.148 944.844 647.016C938.599 653.885 927.908 654.334 920.963 648.021Z" fill="#D9D9D9"/>
<path d="M968.96 614.933C958.95 621.673 947.664 627.062 936.765 632.212C934.573 633.248 930.058 636.997 927.658 635.936" stroke="#D9D9D9" stroke-linecap="round"/>
<path d="M500.388 69.9999C617.055 9.33331 839.188 -32.0001 794.388 288C749.588 608 833.055 620 906.388 586C979.72 552 1048.39 532 1048.39 586C1048.39 689.011 747.721 736.667 650.388 796C454.388 880 354.788 1030 500.388 1094C645.988 1158 714.388 1092.5 794.388 1048C957.05 933.333 1247.19 808.8 1106.39 1228" stroke="#D9D9D9" stroke-width="3"/>
<path d="M570.888 872C590.494 872 606.388 858.121 606.388 841C606.388 823.879 590.494 810 570.888 810C551.282 810 535.388 823.879 535.388 841C535.388 858.121 551.282 872 570.888 872Z" fill="#D9D9D9"/>
<path d="M599.49 822.638C605.067 829.262 607.402 837.55 605.982 845.677C604.561 853.805 599.501 861.107 591.915 865.977C584.33 870.847 574.839 872.886 565.532 871.645C556.224 870.405 547.862 865.986 542.286 859.362L570.888 841L599.49 822.638Z" fill="#C9B16A"/>
<path d="M843.888 753C863.494 753 879.388 739.121 879.388 722C879.388 704.879 863.494 691 843.888 691C824.282 691 808.388 704.879 808.388 722C808.388 739.121 824.282 753 843.888 753Z" fill="#D9D9D9"/>
<path d="M876.783 710.345C880.323 717.964 880.252 726.498 876.586 734.071C872.92 741.644 865.959 747.635 857.235 750.726C848.51 753.817 838.737 753.755 830.065 750.553C821.393 747.352 814.532 741.273 810.992 733.655L843.888 722L876.783 710.345Z" fill="#EBBC98"/>
<path d="M794.257 357.691C813.668 354.927 827.447 338.946 825.034 321.997C822.621 305.047 804.929 293.546 785.519 296.309C766.108 299.073 752.329 315.054 754.742 332.003C757.155 348.953 774.847 360.454 794.257 357.691Z" fill="#D9D9D9"/>
<path d="M793.487 296.034C798.119 296.336 802.612 297.435 806.711 299.27C810.81 301.104 814.433 303.638 817.374 306.727C820.315 309.815 822.517 313.398 823.853 317.27C825.189 321.143 825.633 325.229 825.161 329.295C824.688 333.362 823.308 337.329 821.098 340.97C818.889 344.612 815.894 347.857 812.285 350.519C808.675 353.181 804.522 355.209 800.061 356.487C795.601 357.764 790.921 358.267 786.289 357.966L789.888 327L793.487 296.034Z" fill="#BF8458"/>
<path d="M561.888 1149C581.494 1149 597.388 1135.12 597.388 1118C597.388 1100.88 581.494 1087 561.888 1087C542.282 1087 526.388 1100.88 526.388 1118C526.388 1135.12 542.282 1149 561.888 1149Z" fill="#D9D9D9"/>
<path d="M597.006 1122.53C596.269 1126.89 594.476 1131.06 591.747 1134.77C589.018 1138.47 585.416 1141.63 581.182 1144.02C576.947 1146.42 572.176 1147.99 567.188 1148.65C562.2 1149.31 557.108 1149.03 552.253 1147.84C547.397 1146.64 542.889 1144.55 539.029 1141.72C535.17 1138.88 532.046 1135.36 529.868 1131.39C527.69 1127.41 526.506 1123.08 526.396 1118.67C526.287 1114.27 527.253 1109.9 529.231 1105.84L561.888 1118L597.006 1122.53Z" fill="#DCC063"/>
<path d="M514.888 92.9999C534.494 92.9999 550.388 79.1207 550.388 61.9999C550.388 44.8791 534.494 30.9999 514.888 30.9999C495.282 30.9999 479.388 44.8791 479.388 61.9999C479.388 79.1207 495.282 92.9999 514.888 92.9999Z" fill="#D9D9D9"/>
<path d="M547.896 50.5898C549.612 54.375 550.457 58.4183 550.384 62.4887C550.31 66.5592 549.319 70.5772 547.467 74.3132C545.616 78.049 542.939 81.43 539.591 84.263C536.243 87.096 532.289 89.325 527.954 90.824C523.62 92.322 518.99 93.06 514.328 92.996C509.667 92.932 505.066 92.067 500.787 90.45C496.509 88.833 492.637 86.496 489.393 83.572C486.149 80.648 483.596 77.195 481.88 73.41L514.888 61.9999L547.896 50.5898Z" fill="#E1A646"/>
<path d="M1101.89 1259C1121.5 1259 1137.39 1245.12 1137.39 1228C1137.39 1210.88 1121.5 1197 1101.89 1197C1082.28 1197 1066.39 1210.88 1066.39 1228C1066.39 1245.12 1082.28 1259 1101.89 1259Z" fill="#D9D9D9"/>
<path d="M1115.06 1199.21C1123.8 1202.26 1130.8 1208.22 1134.51 1215.78C1138.22 1223.33 1138.35 1231.86 1134.85 1239.5C1131.36 1247.13 1124.54 1253.25 1115.89 1256.49C1107.24 1259.73 1097.46 1259.84 1088.72 1256.79L1101.89 1228L1115.06 1199.21Z" fill="#B68A42"/>
<path d="M1261.79 504.722C1224.77 556.389 1138.05 622.788 1087.38 475.046C1036.71 327.305 998.1 340.386 973.93 371.081C949.75 401.775 924.523 425.414 912.713 402.136C890.185 357.731 1009.37 271.431 1038.35 224.567C1104.47 145.491 1114.6 59.0476 1037.84 63.3018C961.08 67.556 945.92 110.751 921.166 147.43C876.122 232.435 778.289 349.571 747.304 138.071" stroke="#D9D9D9" stroke-width="3"/>
<path d="M1056 174.419C1047.55 178.707 1043.73 188.166 1047.48 195.546C1051.22 202.926 1061.11 205.433 1069.56 201.145C1078.01 196.857 1081.83 187.398 1078.08 180.018C1074.34 172.638 1064.45 170.131 1056 174.419Z" fill="#D9D9D9"/>
<path d="M1054.47 201.953C1050.62 200.317 1047.8 197.255 1046.63 193.441C1045.47 189.627 1046.05 185.372 1048.26 181.614C1050.46 177.856 1054.11 174.901 1058.39 173.4C1062.67 171.9 1067.24 171.975 1071.1 173.611L1062.78 187.782L1054.47 201.953Z" fill="#C9B16A"/>
<path d="M964.34 285.423C955.888 289.711 952.072 299.17 955.817 306.55C959.561 313.93 969.448 316.437 977.9 312.149C986.352 307.861 990.168 298.402 986.423 291.022C982.679 283.642 972.792 281.135 964.34 285.423Z" fill="#D9D9D9"/>
<path d="M959.49 311.004C956.3 308.494 954.47 304.8 954.39 300.733C954.31 296.667 956 292.562 959.09 289.322C962.17 286.081 966.4 283.97 970.84 283.454C975.28 282.937 979.56 284.057 982.76 286.567L971.12 298.786L959.49 311.004Z" fill="#EBBC98"/>
<path d="M1072.19 444.976C1064.43 450.412 1061.99 460.314 1066.73 467.093C1071.48 473.872 1081.62 474.961 1089.39 469.524C1097.15 464.088 1099.59 454.186 1094.85 447.407C1090.1 440.628 1079.96 439.539 1072.19 444.976Z" fill="#D9D9D9"/>
<path d="M1086.01 471.386C1083.95 472.269 1081.77 472.778 1079.6 472.883C1077.43 472.989 1075.32 472.689 1073.37 472.001C1071.43 471.312 1069.7 470.249 1068.28 468.872C1066.85 467.495 1065.77 465.831 1065.08 463.975C1064.4 462.119 1064.12 460.107 1064.28 458.054C1064.44 456.001 1065.02 453.947 1065.99 452.01C1066.97 450.073 1068.31 448.29 1069.96 446.764C1071.6 445.238 1073.51 443.998 1075.57 443.115L1080.79 457.25L1086.01 471.386Z" fill="#BF8458"/>
<path d="M999.3 53.0428C990.849 57.3308 987.032 66.7898 990.777 74.1702C994.521 81.5505 1004.41 84.0573 1012.86 79.7694C1021.31 75.4814 1025.13 66.0224 1021.38 58.6421C1017.64 51.2617 1007.75 48.7548 999.3 53.0428Z" fill="#D9D9D9"/>
<path d="M989.95 72.1323C989.32 70.0923 989.18 67.9023 989.54 65.7083C989.91 63.5142 990.77 61.3665 992.07 59.4083C993.38 57.45 995.09 55.7262 997.09 54.3517C999.1 52.9773 1001.36 51.9837 1003.71 51.4372C1006.06 50.8907 1008.46 50.8039 1010.75 51.1825C1013.03 51.5612 1015.15 52.3966 1016.96 53.633C1018.77 54.8695 1020.22 56.4787 1021.23 58.3532C1022.24 60.2278 1022.78 62.3248 1022.82 64.5044L1006.08 66.4061L989.95 72.1323Z" fill="#DCC063"/>
<path d="M1250.51 497.979C1242.06 502.267 1238.24 511.726 1241.99 519.106C1245.73 526.486 1255.62 528.993 1264.07 524.705C1272.52 520.417 1276.34 510.958 1272.59 503.578C1268.85 496.198 1258.96 493.691 1250.51 497.979Z" fill="#D9D9D9"/>
<path d="M1245.56 523.479C1243.99 522.223 1242.74 520.665 1241.88 518.894C1241.02 517.123 1240.57 515.175 1240.55 513.159C1240.54 511.144 1240.95 509.101 1241.77 507.147C1242.6 505.194 1243.81 503.368 1245.35 501.774C1246.9 500.18 1248.73 498.85 1250.75 497.858C1252.78 496.866 1254.95 496.233 1257.15 495.994C1259.35 495.756 1261.53 495.916 1263.56 496.467C1265.6 497.018 1267.46 497.948 1269.02 499.204L1257.29 511.342L1245.56 523.479Z" fill="#E1A646"/>
<path d="M742.464 123.724C734.012 128.012 730.197 137.471 733.941 144.851C737.685 152.231 747.572 154.738 756.024 150.45C764.476 146.162 768.292 136.703 764.547 129.323C760.803 121.943 750.916 119.436 742.464 123.724Z" fill="#D9D9D9"/>
<path d="M749.863 152.377C745.427 152.974 741.108 151.936 737.855 149.491C734.602 147.046 732.682 143.395 732.518 139.34C732.354 135.284 733.959 131.158 736.979 127.868C740 124.578 744.189 122.394 748.625 121.797L749.244 137.087L749.863 152.377Z" fill="#B68A42"/>
<path d="M143.711 678.134C136.905 677.163 132.166 670.92 133.126 664.188C134.086 657.457 140.382 652.787 147.188 653.758C153.994 654.728 158.733 660.972 157.773 667.703C156.813 674.434 150.517 679.104 143.711 678.134Z" fill="#D9D9D9"/>
<path d="M143.711 730.134C136.905 729.163 132.166 722.92 133.126 716.188C134.086 709.457 140.382 704.787 147.188 705.758C153.994 706.728 158.733 712.972 157.773 719.703C156.813 726.434 150.517 731.104 143.711 730.134Z" fill="#D9D9D9"/>
<path d="M145.388 672V719.5M132.388 691.5H156.388" stroke="#D9D9D9" stroke-width="3"/>
<path d="M1208.76 367.893C1205.73 361.72 1208.23 354.289 1214.33 351.295C1220.44 348.301 1227.84 350.877 1230.87 357.05C1233.9 363.222 1231.4 370.653 1225.3 373.648C1219.19 376.642 1211.79 374.065 1208.76 367.893Z" fill="#D9D9D9"/>
<path d="M1165.77 397.153C1162.74 390.98 1165.24 383.549 1171.34 380.555C1177.45 377.561 1184.85 380.137 1187.88 386.31C1190.91 392.482 1188.41 399.913 1182.31 402.907C1176.2 405.902 1168.8 403.325 1165.77 397.153Z" fill="#D9D9D9"/>
<path d="M1214.77 365.827L1175.51 392.556M1191.34 366.053L1204.84 385.893" stroke="#D9D9D9" stroke-width="3"/>
<path d="M1223 93.759C1214.15 140.325 1110.43 168.525 1149.81 65.7196" stroke="#D9D9D9" stroke-width="3"/>
<path d="M1228.88 81.0238C1220.22 77.7053 1210.51 82.0364 1207.19 90.6974C1203.87 99.3585 1208.2 109.07 1216.86 112.388C1225.52 115.707 1235.23 111.376 1238.55 102.715C1241.87 94.0535 1237.54 84.3422 1228.88 81.0238Z" fill="#D9D9D9"/>
<path d="M1156.42 43.271C1147.76 39.9526 1138.05 44.2837 1134.73 52.9448C1131.41 61.6058 1135.74 71.3171 1144.4 74.6355C1153.06 77.9539 1162.77 73.6229 1166.09 64.9618C1169.41 56.3008 1165.08 46.5895 1156.42 43.271Z" fill="#D9D9D9"/>
<path d="M1093.39 338.868C1088.18 309.917 1142.03 270.544 1142.03 338.868" stroke="#D9D9D9" stroke-width="3"/>
<path d="M1092.81 347.553C1098.57 347.553 1103.23 342.887 1103.23 337.131C1103.23 331.375 1098.57 326.709 1092.81 326.709C1087.05 326.709 1082.39 331.375 1082.39 337.131C1082.39 342.887 1087.05 347.553 1092.81 347.553Z" fill="#D9D9D9"/>
<path d="M1143.18 353.343C1148.94 353.343 1153.6 348.677 1153.6 342.921C1153.6 337.165 1148.94 332.499 1143.18 332.499C1137.42 332.499 1132.76 337.165 1132.76 342.921C1132.76 348.677 1137.42 353.343 1143.18 353.343Z" fill="#D9D9D9"/>
<path d="M971.36 1025.29C962.37 975.375 1055.22 907.487 1055.22 1025.29" stroke="#D9D9D9" stroke-width="3"/>
<path d="M970.36 1040.27C980.285 1040.27 988.33 1032.22 988.33 1022.3C988.33 1012.38 980.285 1004.33 970.36 1004.33C960.435 1004.33 952.39 1012.38 952.39 1022.3C952.39 1032.22 960.435 1040.27 970.36 1040.27Z" fill="#D9D9D9"/>
<path d="M1057.21 1050.25C1067.13 1050.25 1075.18 1042.2 1075.18 1032.28C1075.18 1022.36 1067.13 1014.31 1057.21 1014.31C1047.29 1014.31 1039.24 1022.36 1039.24 1032.28C1039.24 1042.2 1047.29 1050.25 1057.21 1050.25Z" fill="#D9D9D9"/>
<path d="M0.387817 439.335C6.10212 437.573 19.7125 435.106 28.4398 439.335L19.0891 463.652C21.1863 461.009 39.8683 489.026 40.3878 492.198C29.1324 493.255 5.37482 494.101 0.387817 489.026C3.50472 484.445 11.6086 472.956 19.0891 463.652L0.387817 439.335Z" fill="#D9D9D9"/>
<path d="M19.0891 463.652L28.4398 439.335C19.7125 435.106 6.10212 437.573 0.387817 439.335L19.0891 463.652ZM19.0891 463.652C11.6086 472.956 3.50472 484.445 0.387817 489.026C5.37482 494.101 29.1324 493.255 40.3878 492.198C39.8683 489.026 21.1863 461.009 19.0891 463.652Z" stroke="#D9D9D9" stroke-width="3"/>
<path d="M329.826 81.713C332.333 83.597 337.58 88.613 338.515 93.604L325.451 97.07C327.206 97.152 321.279 113.631 320.113 114.821C316.185 110.373 308.472 100.561 309.049 96.896C311.93 96.818 319.244 96.742 325.451 97.07L329.826 81.713Z" fill="#D9D9D9"/>
<path d="M325.451 97.07L338.515 93.604C337.58 88.613 332.333 83.597 329.826 81.713L325.451 97.07ZM325.451 97.07C319.244 96.742 311.93 96.818 309.049 96.896C308.472 100.561 316.185 110.373 320.113 114.821C321.279 113.631 327.206 97.152 325.451 97.07Z" stroke="#D9D9D9" stroke-width="3"/>
<path d="M663.826 409.713C666.333 411.597 671.58 416.613 672.515 421.604L659.451 425.07C661.206 425.152 655.279 441.631 654.113 442.821C650.185 438.373 642.472 428.561 643.049 424.896C645.93 424.818 653.244 424.742 659.451 425.07L663.826 409.713Z" fill="#D9D9D9"/>
<path d="M659.451 425.07L672.515 421.604C671.58 416.613 666.333 411.597 663.826 409.713L659.451 425.07ZM659.451 425.07C653.244 424.742 645.93 424.818 643.049 424.896C642.472 428.561 650.185 438.373 654.113 442.821C655.279 441.631 661.206 425.152 659.451 425.07Z" stroke="#D9D9D9" stroke-width="3"/>
<path d="M618.388 721.335C624.102 719.573 637.712 717.106 646.44 721.335L637.089 745.652C639.186 743.009 657.868 771.026 658.388 774.198C647.132 775.255 623.375 776.101 618.388 771.026C621.505 766.445 629.609 754.956 637.089 745.652L618.388 721.335Z" fill="#D9D9D9"/>
<path d="M637.089 745.652L646.44 721.335C637.712 717.106 624.102 719.573 618.388 721.335L637.089 745.652ZM637.089 745.652C629.609 754.956 621.505 766.445 618.388 771.026C623.375 776.101 647.132 775.255 658.388 774.198C657.868 771.026 639.186 743.009 637.089 745.652Z" stroke="#D9D9D9" stroke-width="3"/>
<path d="M718.455 953.762C717.382 959.645 713.29 972.858 705.512 978.65L688.253 959.133C689.63 962.213 656.153 965.86 653.099 964.857C657.355 954.384 667.567 932.916 674.37 930.834C676.997 935.713 683.45 948.204 688.253 959.133L718.455 953.762Z" fill="#D9D9D9"/>
<path d="M688.253 959.133L705.512 978.65C713.29 972.858 717.382 959.645 718.455 953.762L688.253 959.133ZM688.253 959.133C683.45 948.204 676.997 935.713 674.37 930.834C667.567 932.916 657.355 954.384 653.099 964.857C656.153 965.86 689.63 962.213 688.253 959.133Z" stroke="#D9D9D9" stroke-width="3"/>
<path d="M563.852 1006.54C565.185 999.2 577.652 994.94 584.852 1012.54C592.052 1030.14 573.852 1032.54 563.852 1031.54C547.185 1027.54 519.771 1003.49 559.771 976.287C599.771 949.087 618.519 1004.87 620.852 1031.54C621.852 1047.87 611.852 1077.14 563.852 1063.54C515.852 1049.94 503.437 1005.62 513.771 985.29" stroke="#D9D9D9" stroke-width="2"/>
<path d="M566.271 1009.29C570.965 1009.29 574.771 1005.48 574.771 1000.79C574.771 996.096 570.965 992.29 566.271 992.29C561.577 992.29 557.771 996.096 557.771 1000.79C557.771 1005.48 561.577 1009.29 566.271 1009.29Z" fill="#D9D9D9"/>
<path d="M1133.27 760.287C1137.96 760.287 1141.77 756.481 1141.77 751.787C1141.77 747.093 1137.96 743.287 1133.27 743.287C1128.58 743.287 1124.77 747.093 1124.77 751.787C1124.77 756.481 1128.58 760.287 1133.27 760.287Z" fill="#D9D9D9"/>
<path d="M563.039 404.804C567.41 403.711 572.867 409.514 564.968 417.867C557.068 426.219 551.21 416.792 549.268 411.035C547.318 400.858 553.732 379.763 578.684 395.017C603.635 410.27 577.581 434.5 563.474 442.431C554.727 447.053 536.114 448.839 531.642 419.01C527.17 389.181 548.486 371.298 562.262 371.922" stroke="#D9D9D9" stroke-width="2"/>
<path d="M562.126 406.821C563.296 409.407 566.341 410.555 568.926 409.385C571.512 408.215 572.66 405.17 571.49 402.585C570.32 399.999 567.275 398.851 564.69 400.021C562.104 401.191 560.956 404.236 562.126 406.821Z" fill="#D9D9D9"/>
<path d="M404.852 112.537C406.185 105.203 418.652 100.937 425.852 118.537C433.052 136.137 414.852 138.537 404.852 137.537C388.185 133.537 360.771 109.487 400.771 82.287C440.771 55.0868 459.519 110.87 461.852 137.537C462.852 153.87 452.852 183.137 404.852 169.537C356.852 155.937 344.437 111.62 354.771 91.287" stroke="#D9D9D9" stroke-width="2"/>
<path d="M407.271 115.287C411.965 115.287 415.771 111.481 415.771 106.787C415.771 102.093 411.965 98.287 407.271 98.287C402.577 98.287 398.771 102.093 398.771 106.787C398.771 111.481 402.577 115.287 407.271 115.287Z" fill="#D9D9D9"/>
<path d="M900.851 810.464C908.185 811.797 912.451 824.264 894.851 831.464C877.251 838.664 874.851 820.464 875.851 810.464C879.851 793.797 903.901 766.383 931.101 806.383C958.3 846.383 902.518 865.131 875.851 867.464C859.518 868.464 830.251 858.464 843.851 810.464C857.451 762.464 901.768 750.05 922.101 760.383" stroke="#D9D9D9" stroke-width="2"/>
<path d="M898.101 812.883C898.101 817.577 901.907 821.383 906.601 821.383C911.295 821.383 915.101 817.577 915.101 812.883C915.101 808.189 911.295 804.383 906.601 804.383C901.907 804.383 898.101 808.189 898.101 812.883Z" fill="#D9D9D9"/>
<path d="M1227.14 779C1184.31 797.816 1124.36 843.159 1227.14 874C1208.02 857.019 1181.25 814.246 1227.14 779Z" fill="#D9D9D9" stroke="#D9D9D9" stroke-width="2" stroke-linejoin="round"/>
<path d="M1185.81 813.546C1191.6 813.546 1196.3 808.575 1196.3 802.442C1196.3 796.31 1191.6 791.338 1185.81 791.338C1180.02 791.338 1175.32 796.31 1175.32 802.442C1175.32 808.575 1180.02 813.546 1185.81 813.546Z" fill="#E1A646"/>
<path d="M1196.18 804.076C1196.56 801.377 1195.99 798.625 1194.57 796.344C1187.77 799.363 1181.06 807.013 1178.56 810.46C1180.42 812.348 1182.87 813.444 1185.44 813.539C1188.02 813.634 1190.54 812.722 1192.52 810.976C1194.5 809.231 1195.8 806.775 1196.18 804.076Z" fill="#3A383C"/>
<path d="M1207.4 850.558C1212.17 850.558 1216.04 846.968 1216.04 842.539C1216.04 838.11 1212.17 834.52 1207.4 834.52C1202.63 834.52 1198.76 838.11 1198.76 842.539C1198.76 846.968 1202.63 850.558 1207.4 850.558Z" fill="#D9D9D9"/>
<path d="M1210.4 850.058C1209.32 850.43 1208.17 850.598 1207.02 850.551C1205.87 850.504 1204.74 850.243 1203.7 849.784C1202.66 849.326 1201.73 848.678 1200.96 847.88C1200.19 847.081 1199.6 846.148 1199.23 845.135C1198.86 844.123 1198.71 843.051 1198.79 841.983C1198.87 840.915 1199.17 839.873 1199.69 838.918C1200.22 837.963 1200.94 837.115 1201.82 836.422C1202.69 835.73 1203.71 835.208 1204.81 834.888L1207.4 842.539L1210.4 850.058Z" fill="#3A383C"/>
<path d="M-14.1123 565C41.8877 544.2 81.3879 503 91.3879 487C104.721 467.667 151.388 431.4 231.388 441C311.388 450.6 340.388 551 266.388 689.5C189.054 808.167 29.7877 1038.2 -8.6123 1003" stroke="#D9D9D9" stroke-width="3"/>
</g>
<defs>
<clipPath id="clip0_489_729">
<rect width="1279" height="1259" fill="white"/>
</clipPath>
</defs>
</svg>
